<?xml version="1.0" standalone="no"?>
<!DOCTYPE svg PUBLIC "-//W3C//DTD SVG 20010904//EN"
 "http://www.w3.org/TR/2001/REC-SVG-20010904/DTD/svg10.dtd">
<svg version="1.0" xmlns="http://www.w3.org/2000/svg"
 width="349.000000pt" height="67.000000pt" viewBox="0 0 349.000000 67.000000"
 preserveAspectRatio="xMidYMid meet">

<g transform="translate(0.000000,67.000000) scale(0.100000,-0.100000)"
fill="#000000" stroke="none">
<path d="M945 611 c-55 -25 -77 -52 -82 -103 -10 -91 27 -125 172 -158 131
-31 161 -58 135 -120 -16 -38 -65 -60 -135 -60 -61 0 -105 18 -129 51 -10 15
-20 19 -35 14 -31 -9 -26 -28 18 -68 79 -71 228 -72 298 -2 53 53 56 129 7
178 -23 23 -47 32 -190 67 -23 5 -53 19 -68 31 -45 36 -30 100 29 125 66 27
143 14 180 -31 15 -18 27 -23 43 -19 27 8 28 14 0 49 -48 61 -163 83 -243 46z"/>
<path d="M80 585 c0 -25 0 -25 100 -25 55 0 111 -5 125 -12 51 -23 70 -95 38
-148 -24 -41 -53 -50 -163 -50 l-100 0 0 -115 0 -115 25 0 c25 0 25 1 25 90
l0 90 68 0 67 0 49 -86 c48 -85 61 -99 90 -92 13 2 6 22 -34 92 -27 49 -50 92
-50 96 0 4 11 12 24 18 29 13 66 87 66 133 0 47 -38 108 -80 130 -28 15 -57
19 -142 19 l-108 0 0 -25z"/>
<path d="M480 585 l0 -25 160 0 160 0 0 25 0 25 -160 0 -160 0 0 -25z"/>
<path d="M1300 585 l0 -25 160 0 160 0 0 25 0 25 -160 0 -160 0 0 -25z"/>
<path d="M1842 558 c-12 -29 -51 -133 -87 -231 -37 -99 -69 -186 -72 -194 -4
-11 1 -14 23 -11 28 3 32 10 99 195 39 105 73 194 76 198 3 3 19 -29 34 -72
103 -294 116 -323 141 -323 13 0 24 3 24 7 0 3 -39 114 -87 245 -77 210 -90
238 -109 238 -17 0 -26 -12 -42 -52z"/>
<path d="M2150 585 c0 -25 0 -25 100 -25 55 0 111 -5 125 -12 51 -23 70 -95
38 -148 -24 -41 -53 -50 -163 -50 l-100 0 0 -115 0 -115 25 0 c25 0 25 1 25
90 l0 90 68 0 67 0 49 -86 c48 -85 61 -99 90 -92 13 2 6 22 -34 92 -27 49 -50
92 -50 96 0 4 11 12 24 18 29 13 66 87 66 133 0 47 -38 108 -80 130 -28 15
-57 19 -142 19 l-108 0 0 -25z"/>
<path d="M2705 594 c-53 -19 -102 -68 -131 -129 -63 -133 9 -289 152 -331 84
-24 165 -2 228 64 27 29 27 31 8 41 -17 9 -26 6 -52 -19 -29 -27 -84 -50 -120
-50 -34 0 -91 22 -121 47 -88 74 -89 214 -3 295 71 66 180 63 249 -7 21 -20
30 -23 46 -15 17 10 18 13 5 31 -52 75 -167 107 -261 73z"/>
<path d="M3192 558 c-12 -29 -51 -133 -87 -231 -37 -99 -69 -186 -72 -194 -4
-11 1 -14 23 -11 28 3 32 10 99 195 39 105 73 194 76 198 3 3 19 -29 34 -72
103 -294 116 -323 141 -323 13 0 24 3 24 7 0 3 -39 114 -87 245 -77 210 -90
238 -109 238 -17 0 -26 -12 -42 -52z"/>
<path d="M480 365 l0 -25 150 0 150 0 0 25 0 25 -150 0 -150 0 0 -25z"/>
<path d="M1300 365 l0 -25 150 0 150 0 0 25 0 25 -150 0 -150 0 0 -25z"/>
<path d="M480 145 l0 -25 160 0 160 0 0 25 0 25 -160 0 -160 0 0 -25z"/>
<path d="M1300 145 l0 -25 160 0 160 0 0 25 0 25 -160 0 -160 0 0 -25z"/>
</g>
</svg>
