<?xml version="1.0" standalone="no"?>
<!DOCTYPE svg PUBLIC "-//W3C//DTD SVG 20010904//EN"
 "http://www.w3.org/TR/2001/REC-SVG-20010904/DTD/svg10.dtd">
<svg version="1.0" xmlns="http://www.w3.org/2000/svg"
 width="48.000000pt" height="67.000000pt" viewBox="0 0 48.000000 67.000000"
 preserveAspectRatio="xMidYMid meet">

<g transform="translate(0.000000,67.000000) scale(0.100000,-0.100000)"
fill="#000000" stroke="none">
<path d="M80 585 c0 -25 0 -25 100 -25 55 0 111 -5 125 -12 51 -23 70 -95 38
-148 -24 -41 -53 -50 -163 -50 l-100 0 0 -115 0 -115 25 0 c25 0 25 1 25 90
l0 90 68 0 67 0 49 -86 c48 -85 61 -99 90 -92 13 2 6 22 -34 92 -27 49 -50 92
-50 96 0 4 11 12 24 18 29 13 66 87 66 133 0 47 -38 108 -80 130 -28 15 -57
19 -142 19 l-108 0 0 -25z"/>
</g>
</svg>
