<?xml version="1.0" encoding="UTF-8"?>
<!DOCTYPE svg PUBLIC "-//W3C//DTD SVG 1.1//EN" "http://www.w3.org/Graphics/SVG/1.1/DTD/svg11.dtd">
<svg xmlns="http://www.w3.org/2000/svg" xmlns:xlink="http://www.w3.org/1999/xlink" version="1.1" width="960px" height="530px" viewBox="-0.5 -0.5 960 530"><defs><style type="text/css">@import url(https://fonts.googleapis.com/css?family=Architects+Daughter);&#xa;</style></defs><g><path d="M 360.91 340.15 L 420.91 294.79 L 450.91 294.79 L 510.91 340.15 Z" fill="#f5f5f5" stroke="none" transform="rotate(-160,435.91,317.47)" pointer-events="all"/><path d="M 370.13 340.15 L 430.13 294.79 L 460.13 294.79 L 520.13 340.15 Z" fill="#f5f5f5" stroke="none" transform="rotate(160,445.13,317.47)" pointer-events="all"/><path d="M 305.18 250.72 L 365.18 205.36 L 469.14 205.36 L 529.14 250.72 Z" fill="#f5f5f5" stroke="none" transform="rotate(-200,417.16,228.04)" pointer-events="all"/><path d="M 355.49 252.72 L 415.49 207.36 L 519.45 207.36 L 579.45 252.72 Z" fill="#f5f5f5" stroke="none" transform="rotate(-160,467.47,230.04)" pointer-events="all"/><path d="M 10.03 369 L 190.03 369 L 200.03 379 L 200.03 449.31 L 20.03 449.31 L 10.03 439.31 L 10.03 369 Z" fill="rgb(255, 255, 255)" stroke="rgb(0, 0, 0)" stroke-width="2" stroke-miterlimit="10" transform="rotate(-140,105.03,409.15)" pointer-events="all"/><path d="M 10.03 369 L 190.03 369 L 200.03 379 L 20.03 379 Z" fill-opacity="0.05" fill="#000000" stroke="none" transform="rotate(-140,105.03,409.15)" pointer-events="all"/><path d="M 10.03 369 L 20.03 379 L 20.03 449.31 L 10.03 439.31 Z" fill-opacity="0.1" fill="#000000" stroke="none" transform="rotate(-140,105.03,409.15)" pointer-events="all"/><path d="M 20.03 449.31 L 20.03 379 L 10.03 369 M 20.03 379 L 200.03 379" fill="none" stroke="rgb(0, 0, 0)" stroke-width="2" stroke-miterlimit="10" transform="rotate(-140,105.03,409.15)" pointer-events="all"/><rect x="24.02" y="375.83" width="155.62" height="52.81" fill="none" stroke="none" transform="rotate(40,101.83,402.23)" pointer-events="all"/><g transform="translate(-0.5 -0.5)rotate(40 101.82999999999993 402.2349999999999)"><switch><foreignObject pointer-events="none" width="100%" height="100%" requiredFeatures="http://www.w3.org/TR/SVG11/feature#Extensibility" style="overflow: visible; text-align: left;"><div xmlns="http://www.w3.org/1999/xhtml" style="display: flex; align-items: unsafe center; justify-content: unsafe center; width: 154px; height: 1px; padding-top: 402px; margin-left: 25px;"><div data-drawio-colors="color: rgb(0, 0, 0); " style="box-sizing: border-box; font-size: 0px; text-align: center;"><div style="display: inline-block; font-size: 26px; font-family: Helvetica; color: rgb(0, 0, 0); line-height: 1.2; pointer-events: all; white-space: normal; overflow-wrap: normal;">World news</div></div></div></foreignObject><text x="102" y="410" fill="rgb(0, 0, 0)" font-family="Helvetica" font-size="26px" text-anchor="middle">World news</text></switch></g><path d="M 7.03 213 L 187.03 213 L 197.03 223 L 197.03 293.31 L 17.03 293.31 L 7.03 283.31 L 7.03 213 Z" fill="rgb(255, 255, 255)" stroke="rgb(0, 0, 0)" stroke-width="2" stroke-miterlimit="10" transform="rotate(-140,102.03,253.15)" pointer-events="all"/><path d="M 7.03 213 L 187.03 213 L 197.03 223 L 17.03 223 Z" fill-opacity="0.05" fill="#000000" stroke="none" transform="rotate(-140,102.03,253.15)" pointer-events="all"/><path d="M 7.03 213 L 17.03 223 L 17.03 293.31 L 7.03 283.31 Z" fill-opacity="0.1" fill="#000000" stroke="none" transform="rotate(-140,102.03,253.15)" pointer-events="all"/><path d="M 17.03 293.31 L 17.03 223 L 7.03 213 M 17.03 223 L 197.03 223" fill="none" stroke="rgb(0, 0, 0)" stroke-width="2" stroke-miterlimit="10" transform="rotate(-140,102.03,253.15)" pointer-events="all"/><rect x="21.02" y="219.83" width="155.62" height="52.81" fill="none" stroke="none" transform="rotate(40,98.83,246.23)" pointer-events="all"/><g transform="translate(-0.5 -0.5)rotate(40 98.82999999999993 246.2349999999999)"><switch><foreignObject pointer-events="none" width="100%" height="100%" requiredFeatures="http://www.w3.org/TR/SVG11/feature#Extensibility" style="overflow: visible; text-align: left;"><div xmlns="http://www.w3.org/1999/xhtml" style="display: flex; align-items: unsafe center; justify-content: unsafe center; width: 154px; height: 1px; padding-top: 246px; margin-left: 22px;"><div data-drawio-colors="color: rgb(0, 0, 0); " style="box-sizing: border-box; font-size: 0px; text-align: center;"><div style="display: inline-block; font-size: 26px; font-family: Helvetica; color: rgb(0, 0, 0); line-height: 1.2; pointer-events: all; white-space: normal; overflow-wrap: normal;">Tech news</div></div></div></foreignObject><text x="99" y="254" fill="rgb(0, 0, 0)" font-family="Helvetica" font-size="26px" text-anchor="middle">Tech news</text></switch></g><path d="M 4.84 53 L 184.84 53 L 194.84 63 L 194.84 133.31 L 14.84 133.31 L 4.84 123.31 L 4.84 53 Z" fill="rgb(255, 255, 255)" stroke="rgb(0, 0, 0)" stroke-width="2" stroke-miterlimit="10" transform="rotate(-140,99.84,93.15)" pointer-events="all"/><path d="M 4.84 53 L 184.84 53 L 194.84 63 L 14.84 63 Z" fill-opacity="0.05" fill="#000000" stroke="none" transform="rotate(-140,99.84,93.15)" pointer-events="all"/><path d="M 4.84 53 L 14.84 63 L 14.84 133.31 L 4.84 123.31 Z" fill-opacity="0.1" fill="#000000" stroke="none" transform="rotate(-140,99.84,93.15)" pointer-events="all"/><path d="M 14.84 133.31 L 14.84 63 L 4.84 53 M 14.84 63 L 194.84 63" fill="none" stroke="rgb(0, 0, 0)" stroke-width="2" stroke-miterlimit="10" transform="rotate(-140,99.84,93.15)" pointer-events="all"/><rect x="18.83" y="59.83" width="155.62" height="52.81" fill="none" stroke="none" transform="rotate(40,96.64,86.24)" pointer-events="all"/><g transform="translate(-0.5 -0.5)rotate(40 96.63999999999987 86.23500000000001)"><switch><foreignObject pointer-events="none" width="100%" height="100%" requiredFeatures="http://www.w3.org/TR/SVG11/feature#Extensibility" style="overflow: visible; text-align: left;"><div xmlns="http://www.w3.org/1999/xhtml" style="display: flex; align-items: unsafe center; justify-content: unsafe center; width: 154px; height: 1px; padding-top: 86px; margin-left: 20px;"><div data-drawio-colors="color: rgb(0, 0, 0); " style="box-sizing: border-box; font-size: 0px; text-align: center;"><div style="display: inline-block; font-size: 26px; font-family: Helvetica; color: rgb(0, 0, 0); line-height: 1.2; pointer-events: all; white-space: normal; overflow-wrap: normal;">Health news</div></div></div></foreignObject><text x="97" y="94" fill="rgb(0, 0, 0)" font-family="Helvetica" font-size="26px" text-anchor="middle">Health news</text></switch></g><path d="M 169.4 158.05 L 241 158.01 Q 251 158 251 168 L 251 318" fill="none" stroke="rgb(0, 0, 0)" stroke-width="2" stroke-miterlimit="10" pointer-events="stroke"/><path d="M 171 478 L 243 478 Q 253 478 252.88 468 L 251 318" fill="none" stroke="rgb(0, 0, 0)" stroke-width="2" stroke-miterlimit="10" pointer-events="stroke"/><path d="M 171.59 318.05 L 331 318" fill="none" stroke="rgb(0, 0, 0)" stroke-width="2" stroke-miterlimit="10" pointer-events="stroke"/><path d="M 684.57 175.66 L 864.57 175.66 L 874.57 185.66 L 874.57 505.66 L 694.57 505.66 L 684.57 495.66 L 684.57 175.66 Z" fill="rgb(255, 255, 255)" stroke="rgb(0, 0, 0)" stroke-width="2" stroke-miterlimit="10" transform="rotate(-140,779.57,340.66)" pointer-events="all"/><path d="M 684.57 175.66 L 864.57 175.66 L 874.57 185.66 L 694.57 185.66 Z" fill-opacity="0.05" fill="#000000" stroke="none" transform="rotate(-140,779.57,340.66)" pointer-events="all"/><path d="M 684.57 175.66 L 694.57 185.66 L 694.57 505.66 L 684.57 495.66 Z" fill-opacity="0.1" fill="#000000" stroke="none" transform="rotate(-140,779.57,340.66)" pointer-events="all"/><path d="M 694.57 505.66 L 694.57 185.66 L 684.57 175.66 M 694.57 185.66 L 874.57 185.66" fill="none" stroke="rgb(0, 0, 0)" stroke-width="2" stroke-miterlimit="10" transform="rotate(-140,779.57,340.66)" pointer-events="all"/><path d="M 741 225.21 L 901 225.21 L 911 235.21 L 911 305.52 L 751 305.52 L 741 295.52 L 741 225.21 Z" fill="rgb(255, 255, 255)" stroke="rgb(0, 0, 0)" stroke-width="2" stroke-miterlimit="10" transform="rotate(-140,826,265.37)" pointer-events="all"/><path d="M 741 225.21 L 901 225.21 L 911 235.21 L 751 235.21 Z" fill-opacity="0.05" fill="#000000" stroke="none" transform="rotate(-140,826,265.37)" pointer-events="all"/><path d="M 741 225.21 L 751 235.21 L 751 305.52 L 741 295.52 Z" fill-opacity="0.1" fill="#000000" stroke="none" transform="rotate(-140,826,265.37)" pointer-events="all"/><path d="M 751 305.52 L 751 235.21 L 741 225.21 M 751 235.21 L 911 235.21" fill="none" stroke="rgb(0, 0, 0)" stroke-width="2" stroke-miterlimit="10" transform="rotate(-140,826,265.37)" pointer-events="all"/><rect x="748.19" y="235.21" width="155.62" height="52.81" fill="none" stroke="none" transform="rotate(40,826,261.62)" pointer-events="all"/><g transform="translate(-0.5 -0.5)rotate(40 826 261.615)"><switch><foreignObject pointer-events="none" width="100%" height="100%" requiredFeatures="http://www.w3.org/TR/SVG11/feature#Extensibility" style="overflow: visible; text-align: left;"><div xmlns="http://www.w3.org/1999/xhtml" style="display: flex; align-items: unsafe center; justify-content: unsafe center; width: 154px; height: 1px; padding-top: 262px; margin-left: 749px;"><div data-drawio-colors="color: rgb(0, 0, 0); " style="box-sizing: border-box; font-size: 0px; text-align: center;"><div style="display: inline-block; font-size: 26px; font-family: Helvetica; color: rgb(0, 0, 0); line-height: 1.2; pointer-events: all; white-space: normal; overflow-wrap: normal;">Open AI partnerships </div></div></div></foreignObject><text x="826" y="269" fill="rgb(0, 0, 0)" font-family="Helvetica" font-size="26px" text-anchor="middle">Open AI part...</text></switch></g><rect x="791" y="198" width="155.62" height="52.81" fill="none" stroke="none" transform="rotate(40,868.81,224.4)" pointer-events="all"/><g transform="translate(-0.5 -0.5)rotate(40 868.81 224.40499999999997)"><switch><foreignObject pointer-events="none" width="100%" height="100%" requiredFeatures="http://www.w3.org/TR/SVG11/feature#Extensibility" style="overflow: visible; text-align: left;"><div xmlns="http://www.w3.org/1999/xhtml" style="display: flex; align-items: unsafe center; justify-content: unsafe center; width: 154px; height: 1px; padding-top: 224px; margin-left: 792px;"><div data-drawio-colors="color: rgb(0, 0, 0); " style="box-sizing: border-box; font-size: 0px; text-align: center;"><div style="display: inline-block; font-size: 26px; font-family: Helvetica; color: rgb(0, 0, 0); line-height: 1.2; pointer-events: all; white-space: normal; overflow-wrap: normal;"><font style="font-size: 24px;">NEWSLETTER</font></div></div></div></foreignObject><text x="869" y="232" fill="rgb(0, 0, 0)" font-family="Helvetica" font-size="26px" text-anchor="middle">NEWSLETTER</text></switch></g><path d="M 681 295.52 L 841 295.52 L 851 305.52 L 851 375.83 L 691 375.83 L 681 365.83 L 681 295.52 Z" fill="rgb(255, 255, 255)" stroke="rgb(0, 0, 0)" stroke-width="2" stroke-miterlimit="10" transform="rotate(-140,766,335.67)" pointer-events="all"/><path d="M 681 295.52 L 841 295.52 L 851 305.52 L 691 305.52 Z" fill-opacity="0.05" fill="#000000" stroke="none" transform="rotate(-140,766,335.67)" pointer-events="all"/><path d="M 681 295.52 L 691 305.52 L 691 375.83 L 681 365.83 Z" fill-opacity="0.1" fill="#000000" stroke="none" transform="rotate(-140,766,335.67)" pointer-events="all"/><path d="M 691 375.83 L 691 305.52 L 681 295.52 M 691 305.52 L 851 305.52" fill="none" stroke="rgb(0, 0, 0)" stroke-width="2" stroke-miterlimit="10" transform="rotate(-140,766,335.67)" pointer-events="all"/><rect x="688.19" y="305.52" width="155.62" height="52.81" fill="none" stroke="none" transform="rotate(40,766,331.92)" pointer-events="all"/><g transform="translate(-0.5 -0.5)rotate(40 766 331.92499999999995)"><switch><foreignObject pointer-events="none" width="100%" height="100%" requiredFeatures="http://www.w3.org/TR/SVG11/feature#Extensibility" style="overflow: visible; text-align: left;"><div xmlns="http://www.w3.org/1999/xhtml" style="display: flex; align-items: unsafe center; justify-content: unsafe center; width: 154px; height: 1px; padding-top: 332px; margin-left: 689px;"><div data-drawio-colors="color: rgb(0, 0, 0); " style="box-sizing: border-box; font-size: 0px; text-align: center;"><div style="display: inline-block; font-size: 26px; font-family: Helvetica; color: rgb(0, 0, 0); line-height: 1.2; pointer-events: all; white-space: normal; overflow-wrap: normal;">Nvidia valuation</div></div></div></foreignObject><text x="766" y="340" fill="rgb(0, 0, 0)" font-family="Helvetica" font-size="26px" text-anchor="middle">Nvidia valua...</text></switch></g><path d="M 621 369 L 781 369 L 791 379 L 791 449.31 L 631 449.31 L 621 439.31 L 621 369 Z" fill="rgb(255, 255, 255)" stroke="rgb(0, 0, 0)" stroke-width="2" stroke-miterlimit="10" transform="rotate(-140,706,409.15)" pointer-events="all"/><path d="M 621 369 L 781 369 L 791 379 L 631 379 Z" fill-opacity="0.05" fill="#000000" stroke="none" transform="rotate(-140,706,409.15)" pointer-events="all"/><path d="M 621 369 L 631 379 L 631 449.31 L 621 439.31 Z" fill-opacity="0.1" fill="#000000" stroke="none" transform="rotate(-140,706,409.15)" pointer-events="all"/><path d="M 631 449.31 L 631 379 L 621 369 M 631 379 L 791 379" fill="none" stroke="rgb(0, 0, 0)" stroke-width="2" stroke-miterlimit="10" transform="rotate(-140,706,409.15)" pointer-events="all"/><rect x="628.19" y="379" width="155.62" height="52.81" fill="none" stroke="none" transform="rotate(40,706,405.4)" pointer-events="all"/><g transform="translate(-0.5 -0.5)rotate(40 706 405.405)"><switch><foreignObject pointer-events="none" width="100%" height="100%" requiredFeatures="http://www.w3.org/TR/SVG11/feature#Extensibility" style="overflow: visible; text-align: left;"><div xmlns="http://www.w3.org/1999/xhtml" style="display: flex; align-items: unsafe center; justify-content: unsafe center; width: 154px; height: 1px; padding-top: 405px; margin-left: 629px;"><div data-drawio-colors="color: rgb(0, 0, 0); " style="box-sizing: border-box; font-size: 0px; text-align: center;"><div style="display: inline-block; font-size: 26px; font-family: Helvetica; color: rgb(0, 0, 0); line-height: 1.2; pointer-events: all; white-space: normal; overflow-wrap: normal;">Nuclear energy</div></div></div></foreignObject><text x="706" y="413" fill="rgb(0, 0, 0)" font-family="Helvetica" font-size="26px" text-anchor="middle">Nuclear ener...</text></switch></g><path d="M 546 318 L 675 318" fill="none" stroke="rgb(0, 0, 0)" stroke-width="2" stroke-miterlimit="10" pointer-events="stroke"/><path d="M 427.32 310.14 L 447.32 255.14 L 527.32 255.14 L 547.32 310.14 Z" fill="rgb(255, 255, 255)" stroke="rgb(0, 0, 0)" stroke-width="2" stroke-miterlimit="10" transform="rotate(-160,487.32,282.64)" pointer-events="all"/><path d="M 333.18 310.29 L 353.18 255.29 L 433.18 255.29 L 453.18 310.29 Z" fill="rgb(255, 255, 255)" stroke="rgb(0, 0, 0)" stroke-width="2" stroke-miterlimit="10" transform="rotate(160,393.18,282.79)" pointer-events="all"/><path d="M 425.1 223.13 L 445.1 168.13 L 595.03 168.13 L 615.03 223.13 Z" fill="rgb(255, 255, 255)" stroke="rgb(0, 0, 0)" stroke-width="2" stroke-miterlimit="10" transform="rotate(-160,520.06,195.63)" pointer-events="all"/><path d="M 271 222.26 L 291 167.26 L 435 167.26 L 455 222.26 Z" fill="rgb(255, 255, 255)" stroke="rgb(0, 0, 0)" stroke-width="2" stroke-miterlimit="10" transform="rotate(160,363,194.76)" pointer-events="all"/><path d="M 437.93 325.76 L 499.13 408.06 L 440.33 428.64 L 379.13 406.01 Z" fill="rgb(255, 255, 255)" stroke="rgb(0, 0, 0)" stroke-width="2" stroke-miterlimit="10" transform="rotate(-179,439.13,377.2)" pointer-events="all"/><path d="M 437.93 325.76 L 440.33 428.64" fill="none" stroke="rgb(0, 0, 0)" stroke-width="2" stroke-miterlimit="10" transform="rotate(-179,439.13,377.2)" pointer-events="all"/></g><switch><g requiredFeatures="http://www.w3.org/TR/SVG11/feature#Extensibility"/><a transform="translate(0,-5)" xlink:href="https://www.drawio.com/doc/faq/svg-export-text-problems" target="_blank"><text text-anchor="middle" font-size="10px" x="50%" y="100%">Text is not SVG - cannot display</text></a></switch></svg>